<svg viewBox="0 0 148.62 38.07" xmlns="http://www.w3.org/2000/svg"><g fill="#fff"><path d="m18.04 2.13c-1.11-1.18-2.53-1.75-4.06-2.13h-13.97v1.07c.07.19.15.37.2.56.77 3.06 3.37 5.19 6.53 5.29 1.81.05 3.63.03 5.44.01.52 0 .74.13.71.68-.04.73-.01 1.46-.01 2.3h-2.06c-1.23 0-2.45 0-3.68 0-3.62 0-6.21 2.08-7 5.62-.02.1-.08.18-.13.27 0 3.48.01 6.96-.01 10.43 0 .38.09.54.47.46.19-.05.39-.12.59-.15 1.99-.31 3.58-1.28 4.76-2.91.97-1.33 1.35-2.84 1.35-4.46 0-.8 0-1.61 0-2.46h5.87c3.46 0 6.31-2.3 6.84-5.7.22-1.4.11-2.85.09-4.28-.02-1.79-.71-3.31-1.93-4.62zm.88 7.92c-.07 3.13-2.59 5.6-5.72 5.62-2.32.01-4.65 0-7.19 0 0 1.66.12 3.23-.03 4.77-.24 2.5-2.35 4.59-4.83 4.99-.02-.06-.07-.12-.07-.19 0-2.96-.07-5.93.01-8.89.08-3.03 2.67-5.35 5.88-5.39 2.07-.02 4.14-.02 6.21 0 .57 0 .76-.17.74-.74-.04-1.2-.04-2.4 0-3.6.02-.57-.15-.75-.73-.74-2.05.03-4.09.04-6.14 0-2.8-.05-5.02-1.7-5.75-4.22-.05-.17-.06-.34-.09-.54 4.25 0 8.47-.18 12.67.06 2.96.17 4.98 2.76 5.03 5.72.02 1.05.02 2.1 0 3.14z"/><path d="m95.72 11.03c.22-1.4.11-2.85.09-4.28-.02-1.79-.71-3.31-1.93-4.62-1.11-1.18-2.53-1.75-4.06-2.13h-13.97c.16 4.07 3.07 6.9 7.15 6.93 1.69.01 3.37 0 5.06.02.22 0 .6.2.61.33.06.85.03 1.71.03 2.63-2.01 0-3.9 0-5.79 0-4.1.01-7.05 2.96-7.06 7.05v9.73h.46c.19-.05.39-.12.59-.15 1.99-.31 3.58-1.28 4.76-2.91.97-1.33 1.35-2.84 1.35-4.46 0-.8 0-1.61 0-2.46h5.87c3.46 0 6.31-2.3 6.84-5.7zm-6.66 4.64c-2.28.01-4.55 0-6.83.01-.05 0-.09.03-.27.08v3.53c0 1.5-.41 2.87-1.38 4.05-.92 1.12-2.11 1.82-3.61 2.15-.02-.29-.04-.53-.04-.77 0-2.61 0-5.21 0-7.82 0-3.4 2.47-5.89 5.89-5.94 2.07-.03 4.14-.02 6.21 0 .56 0 .77-.14.75-.73-.04-1.2-.05-2.4 0-3.6.03-.65-.23-.76-.8-.75-2.05.03-4.09.04-6.14 0-2.76-.06-4.95-1.7-5.68-4.2-.05-.17-.06-.34-.11-.59 4.19 0 8.28-.09 12.37.03 2.9.08 5.23 2.64 5.33 5.55.04 1.15.04 2.3 0 3.45-.09 3.09-2.61 5.54-5.71 5.55z"/><path d="m72.78 26.7c0-3.99.01-7.97-.01-11.96-.01-2.31-.54-4.46-2.2-6.19-2.48-2.59-6.9-3.25-10.21-1.54-.23.12-.46.24-.73.38-.04-.38-.07-.65-.09-.91h-5.02v20.22h5.07c0-3.75-.01-7.5 0-11.26 0-1.4.21-2.79 1.38-3.75 1.4-1.15 3.02-1.24 4.62-.55 1.61.69 2.11 2.16 2.12 3.77.03 3.93 0 7.86 0 11.79zm-5.31-15.42c-1.56-1.68-3.53-1.86-5.58-1.25-1.98.59-2.93 2.11-3.21 4.09-.09.68-.13 1.37-.13 2.06-.01 3.12 0 6.23 0 9.42h-2.94v-18.16h2.93v2.52c1.13-1.48 2.42-2.33 4.02-2.68 4.11-.89 9.06 1.07 9.16 7.11.05 3.55.01 7.1 0 10.66 0 .17-.02.35-.03.56h-2.93v-.85c0-3.14.01-6.29 0-9.43 0-1.48-.24-2.92-1.3-4.06z"/><path d="m148.45 12.84c-.29-1.65-.9-3.13-2.09-4.34-2.49-2.54-6.88-3.19-10.16-1.49-.23.12-.47.24-.74.38-.03-.38-.06-.65-.08-.91h-5.03v20.22h5.07c0-3.75-.01-7.5 0-11.26 0-1.4.21-2.79 1.38-3.75 1.4-1.15 3.02-1.24 4.62-.55 1.61.69 2.11 2.16 2.12 3.77.03 3.93 0 7.86 0 11.79h5.07v-13.2c-.06-.22-.13-.44-.16-.66zm-.89 12.28c0 .15-.02.3-.03.49h-2.93v-.84c0-3.14.01-6.29 0-9.43 0-1.48-.23-2.92-1.3-4.06-1.56-1.68-3.53-1.86-5.58-1.25-1.98.59-2.93 2.11-3.21 4.09-.1.68-.13 1.37-.13 2.06-.01 3.12 0 6.23 0 9.42h-2.94v-18.16h2.93v2.52c1.13-1.47 2.42-2.33 4.02-2.68 4.11-.89 9.06 1.07 9.16 7.11.06 3.58.01 7.15 0 10.73z"/><path d="m46.37 25.05v1.65h5.22c-.02-.3-.06-.61-.06-.91 0-6.13 0-12.26 0-18.4v-.91h-5.11c-.02.48-.04.9-.07 1.39-.37-.23-.65-.4-.93-.56-3.46-2-9.19-1.87-12.26 2.56-2.72 3.92-2.75 8.14-.6 12.32 1.11 2.17 2.87 3.7 5.33 4.26.37.08.74.16 1.11.24h3.53c1.34-.27 2.65-.6 3.84-1.65zm-12.83-3.15c-2.27-3.87-1.71-9.35 1.17-12.35 3.05-3.18 9.53-3.58 12.71 1.05v-3.13h3.03v18.13h-2.97v-3.16c-.18.16-.26.21-.31.28-2.9 4.41-10.49 4.55-13.63-.81z"/><path d="m122.21 26.7h5.22c-.02-.3-.06-.61-.06-.91 0-6.13 0-12.26 0-18.4v-.91h-5.11c-.02.48-.04.9-.07 1.39-.37-.23-.65-.4-.93-.56-3.46-2-9.19-1.87-12.26 2.56-2.72 3.92-2.75 8.14-.6 12.32 1.11 2.17 2.87 3.7 5.33 4.26.37.08.74.16 1.11.24h3.53c1.34-.27 2.65-.6 3.84-1.65v1.65zm-7.62-.97c-3.56-.8-5.55-3.29-6.34-6.75-.59-2.59-.35-5.13.91-7.52 2.88-5.45 10.82-5.77 14.11-.84v-3.15h3.02v18.14h-2.99v-3.03c-.12.02-.19 0-.2.03-2.14 2.95-5.09 3.88-8.52 3.11z"/><path d="m28.1 0h-5.07v26.7h5.07zm-1.07 25.62h-2.9v-24.52h2.9z"/><path d="m103.94 0h-5.07v26.7h5.07zm-1.07 25.62h-2.9v-24.52h2.9z"/><path d="m47.28 14.85c-.52-2.52-1.95-4.28-4.5-4.88-2.4-.57-4.54.02-6.12 2.01-1.4 1.75-1.62 3.82-1.31 5.96.56 3.92 4.2 6.24 7.89 5.05 2.58-.83 4.18-3.26 4.25-6.4-.07-.58-.09-1.17-.21-1.75zm-3.34 6.69c-2.78 1.71-6.26.41-7.3-2.68-.53-1.58-.54-3.17 0-4.74.74-2.13 2.67-3.44 4.82-3.34 2.37.12 4.23 1.65 4.76 3.96.14.59.17 1.21.25 1.81-.07 2.07-.69 3.86-2.52 4.99z"/><path d="m123.11 14.82c-.53-2.52-1.97-4.27-4.53-4.86-2.37-.55-4.48.03-6.06 1.98-1.41 1.75-1.64 3.8-1.35 5.95.54 3.98 4.29 6.35 8 5.07 2.54-.87 4.08-3.28 4.15-6.39-.07-.58-.09-1.17-.21-1.75zm-3.34 6.72c-2.77 1.71-6.26.41-7.31-2.68-.53-1.58-.54-3.17 0-4.74.74-2.13 2.67-3.44 4.81-3.34 2.37.12 4.23 1.64 4.76 3.95.14.59.17 1.21.25 1.81-.07 2.07-.68 3.86-2.52 4.99z"/><path d="m30.65 30.07h-2.54v.98h.57v4.67c0 .21.05.36.14.46.09.09.25.14.46.14h1.37c.97 0 1.75-.28 2.32-.83.57-.56.86-1.32.86-2.3s-.29-1.73-.86-2.29c-.57-.55-1.35-.83-2.32-.83zm1.44 4.71c-.37.37-.87.56-1.5.56h-.56c-.13 0-.19-.06-.19-.19v-4.1h.76c.63 0 1.13.19 1.49.56s.55.9.55 1.58-.18 1.22-.55 1.6z"/><path d="m37.98 30.08h-1.08l-.66 1.19h.81z"/><path d="m36.69 31.72c-.67 0-1.22.22-1.64.65s-.63 1-.63 1.69c0 .66.22 1.21.66 1.67s1.02.68 1.75.68c.21 0 .42-.02.62-.07s.37-.1.5-.16.25-.13.37-.2c.12-.08.2-.13.23-.16.04-.03.06-.06.08-.08l-.47-.77-.16.12c-.1.08-.25.17-.47.25-.21.09-.42.13-.63.13-.35 0-.65-.11-.91-.32-.25-.21-.4-.51-.44-.89h3.09l.03-.41c0-.62-.18-1.12-.53-1.53-.35-.4-.84-.6-1.46-.6zm-1.1 1.77c.06-.28.19-.5.38-.66s.43-.24.72-.24c.23 0 .43.09.59.25.16.17.24.39.25.65z"/><path d="m42.71 31.92c-.1.07-.18.17-.24.33l-.84 2.36c-.06.18-.11.39-.16.64h-.02l-.17-.64-.84-2.36c-.06-.15-.14-.26-.24-.33-.1-.06-.24-.1-.42-.1h-.64v.95h.1c.12 0 .21.05.25.16l1.28 3.38h1.33l1.28-3.38c.04-.11.12-.16.25-.16h.11v-.95h-.6c-.18 0-.32.03-.42.1z"/><path d="m46.29 31.72c-.67 0-1.22.22-1.64.65s-.63 1-.63 1.69c0 .66.22 1.21.66 1.67s1.02.68 1.75.68c.21 0 .42-.02.62-.07s.37-.1.5-.16.25-.13.37-.2c.12-.08.2-.13.23-.16.04-.03.06-.06.08-.08l-.47-.77-.16.12c-.1.08-.25.17-.47.25-.21.09-.42.13-.63.13-.35 0-.65-.11-.91-.32-.25-.21-.4-.51-.44-.89h3.09l.03-.41c0-.62-.18-1.12-.53-1.53-.35-.4-.84-.6-1.46-.6zm-1.1 1.77c.06-.28.19-.5.38-.66s.43-.24.72-.24c.23 0 .43.09.59.25.16.17.24.39.25.65z"/><path d="m50.45 35.17v-4.51c0-.4-.2-.6-.6-.6h-1.06v.95h.35c.13 0 .19.06.19.19v4.5c0 .21.05.36.14.46.09.09.25.14.46.14h1.05v-.94h-.34c-.13 0-.19-.06-.19-.19z"/><path d="m53.93 31.72c-.69 0-1.27.22-1.75.66-.47.44-.71 1-.71 1.68s.24 1.24.71 1.68 1.05.66 1.75.66 1.28-.22 1.75-.66.71-1 .71-1.68-.24-1.24-.71-1.68-1.06-.66-1.75-.66zm.95 3.35c-.26.26-.57.39-.95.39s-.68-.13-.94-.39-.39-.6-.39-1.01.13-.74.39-1 .57-.4.94-.4.68.13.95.4c.26.26.39.6.39 1s-.13.75-.39 1.01z"/><path d="m59.85 31.72c-.19 0-.38.03-.55.08s-.31.11-.4.17c-.1.06-.19.13-.27.22-.08.08-.13.14-.15.17s-.04.06-.05.07h-.02v-.18c0-.29-.19-.43-.56-.43h-.99v.95h.35c.13 0 .19.06.19.19v5.1h1.11v-1.86c0-.15 0-.28-.02-.39h.02l.12.15c.08.09.23.19.44.29s.45.15.72.15c.6 0 1.09-.22 1.48-.65s.58-1 .58-1.7-.18-1.26-.54-1.7c-.36-.43-.85-.65-1.45-.65zm.54 3.38c-.22.25-.49.37-.81.37-.35 0-.62-.14-.82-.41-.19-.27-.29-.6-.29-.97 0-.47.11-.82.33-1.06s.48-.36.8-.36c.33 0 .6.13.81.39s.31.6.31 1.02-.11.77-.33 1.02z"/><path d="m65.31 31.72c-.19 0-.38.03-.55.08s-.31.11-.4.17c-.1.06-.19.13-.27.22-.08.08-.13.14-.15.17s-.04.06-.05.07h-.02v-.18c0-.29-.19-.43-.56-.43h-.99v.95h.35c.13 0 .19.06.19.19v5.1h1.11v-1.86c0-.15 0-.28-.02-.39h.02l.12.15c.08.09.23.19.44.29s.45.15.72.15c.6 0 1.09-.22 1.48-.65s.58-1 .58-1.7-.18-1.26-.54-1.7c-.36-.43-.85-.65-1.45-.65zm.54 3.38c-.22.25-.49.37-.81.37-.35 0-.62-.14-.82-.41-.19-.27-.29-.6-.29-.97 0-.47.11-.82.33-1.06s.48-.36.8-.36c.33 0 .6.13.81.39s.31.6.31 1.02-.11.77-.33 1.02z"/><path d="m70.15 31.72c-.67 0-1.22.22-1.64.65-.42.44-.63 1-.63 1.69 0 .66.22 1.21.66 1.67.44.45 1.02.68 1.75.68.21 0 .42-.02.62-.07s.37-.1.5-.16.25-.13.37-.2c.12-.08.2-.13.23-.16.04-.03.06-.06.08-.08l-.47-.77-.16.12c-.1.08-.25.17-.47.25-.21.09-.42.13-.63.13-.35 0-.65-.11-.91-.32-.25-.21-.4-.51-.44-.89h3.09l.03-.41c0-.62-.18-1.12-.53-1.53-.35-.4-.84-.6-1.46-.6zm-1.1 1.77c.06-.28.19-.5.38-.66s.43-.24.72-.24c.23 0 .43.09.59.25.16.17.24.39.25.65z"/><path d="m77.37 35.17v-3.35h-1.12v2.06c0 .42-.11.78-.34 1.07s-.53.44-.92.44c-.26 0-.44-.08-.54-.23-.1-.16-.15-.38-.15-.68v-2.07c0-.2-.05-.35-.14-.45-.09-.09-.24-.14-.45-.14h-1.06v.95h.35c.13 0 .19.06.19.19v1.74c0 1.14.52 1.71 1.55 1.71.36 0 .68-.09.96-.27s.47-.4.59-.66h.02v.2s0 .12 0 .12c0 .33.2.5.59.5h1.03v-.94h-.35c-.13 0-.19-.06-.19-.19z"/><path d="m80.44 32.09c-.26.22-.44.49-.54.83h-.02l.02-.28v-.26c0-.36-.2-.55-.6-.55h-1.02v.95h.35c.13 0 .19.06.19.19v3.34h1.11v-1.78c0-.26.03-.5.1-.73.09-.31.25-.55.48-.7.23-.16.48-.24.74-.24.11 0 .2 0 .27.02v-1.1l-.2-.02c-.33 0-.63.11-.88.33z"/><path d="m84.62 33.31h2.65v.98h-2.65z"/><path d="m95.47 34.6c-.05.05-.14.12-.25.2s-.24.16-.39.25c-.14.08-.32.15-.53.21s-.42.08-.65.08c-.57 0-1.05-.22-1.44-.65s-.59-.95-.59-1.56.19-1.15.57-1.53.85-.57 1.43-.57c.32 0 .61.06.88.18s.41.28.41.49v.35h1.05v-.69c0-.25-.08-.47-.25-.66s-.38-.34-.64-.43-.51-.17-.76-.22-.49-.08-.71-.08c-.9 0-1.66.3-2.26.91s-.91 1.36-.91 2.26.3 1.72.9 2.34 1.37.94 2.31.94c.3 0 .59-.04.88-.11.29-.08.52-.16.7-.26s.35-.21.51-.33.27-.21.32-.25c.05-.05.08-.09.11-.11l-.61-.83-.08.09z"/><path d="m99.13 31.72c-.69 0-1.27.22-1.75.66-.47.44-.71 1-.71 1.68s.24 1.24.71 1.68 1.05.66 1.75.66 1.28-.22 1.75-.66.71-1 .71-1.68-.24-1.24-.71-1.68-1.06-.66-1.75-.66zm.95 3.35c-.26.26-.57.39-.95.39s-.68-.13-.94-.39-.39-.6-.39-1.01.13-.74.39-1 .57-.4.94-.4.68.13.95.4c.26.26.39.6.39 1s-.13.75-.39 1.01z"/><path d="m109.46 35.17v-1.75c0-1.14-.49-1.71-1.47-1.71-.34 0-.65.09-.92.27-.28.18-.48.4-.61.66h-.02c-.19-.62-.63-.92-1.31-.92-.33 0-.62.09-.88.28s-.45.4-.57.65h-.02v-.19s0-.13 0-.13c0-.33-.2-.5-.59-.5h-1.03v.95h.35c.13 0 .19.06.19.19v3.34h1.11v-1.97c0-.19.02-.37.07-.56.08-.3.21-.55.4-.75.19-.19.42-.29.69-.29.25 0 .41.08.49.23.08.16.12.38.12.66v2.67h1.12v-1.97c0-.22.02-.41.07-.57.06-.29.19-.54.39-.73.19-.2.42-.29.69-.29.24 0 .4.08.49.23.08.15.13.37.13.67v2.07c0 .21.05.36.14.46.09.09.25.14.46.14h1.05v-.94h-.34c-.13 0-.19-.06-.19-.19z"/><path d="m117.75 35.17v-1.75c0-1.14-.49-1.71-1.47-1.71-.34 0-.65.09-.92.27-.28.18-.48.4-.61.66h-.02c-.19-.62-.63-.92-1.31-.92-.33 0-.62.09-.88.28s-.45.4-.57.65h-.02v-.19s0-.13 0-.13c0-.33-.2-.5-.59-.5h-1.03v.95h.35c.13 0 .19.06.19.19v3.34h1.11v-1.97c0-.19.02-.37.07-.56.08-.3.21-.55.4-.75.19-.19.42-.29.69-.29.25 0 .41.08.49.23.08.16.12.38.12.66v2.67h1.12v-1.97c0-.22.02-.41.07-.57.06-.29.19-.54.39-.73.19-.2.42-.29.69-.29.24 0 .4.08.49.23.08.15.13.37.13.67v2.07c0 .21.05.36.14.46.09.09.25.14.46.14h1.05v-.94h-.34c-.13 0-.19-.06-.19-.19z"/><path d="m123.35 35.17v-3.35h-1.12v2.06c0 .42-.11.78-.34 1.07s-.53.44-.92.44c-.26 0-.44-.08-.54-.23-.1-.16-.15-.38-.15-.68v-2.07c0-.2-.05-.35-.14-.45s-.24-.14-.45-.14h-1.06v.95h.35c.13 0 .19.06.19.19v1.74c0 1.14.52 1.71 1.55 1.71.36 0 .68-.09.96-.27s.47-.4.59-.66h.02v.2s0 .12 0 .12c0 .33.2.5.59.5h1.03v-.94h-.35c-.13 0-.19-.06-.19-.19z"/><path d="m129.02 35.17v-1.75c0-1.14-.52-1.71-1.56-1.71-.4 0-.74.09-1 .28s-.46.4-.58.65h-.02l.02-.19v-.13c0-.33-.2-.5-.59-.5h-1.03v.95h.35c.13 0 .19.06.19.19v3.34h1.11v-2.06c0-.22.03-.42.09-.6.08-.28.23-.5.44-.66.21-.17.47-.25.76-.25.26 0 .45.08.55.23s.15.38.15.68v2.06c0 .21.05.36.14.46.09.09.25.14.46.14h1.06v-.94h-.35c-.13 0-.19-.06-.19-.19z"/><path d="m133.93 35.17v-1.67c0-1.19-.65-1.78-1.93-1.78-.15 0-.31.01-.46.03-.16.02-.33.06-.53.11-.2.06-.35.15-.47.29-.12.13-.18.3-.18.49v.47h1.04v-.24c0-.11.06-.19.19-.23s.26-.07.4-.07c.29 0 .5.07.63.2s.2.36.2.68v.04h-.14c-.15 0-.3 0-.45.02-.15.01-.33.03-.55.06s-.42.08-.6.15-.36.16-.52.27c-.17.11-.3.25-.39.42-.09.18-.14.37-.14.6 0 .43.15.77.45 1.02s.66.38 1.08.38c.19 0 .36-.03.53-.08.16-.06.29-.12.39-.19.09-.07.18-.15.26-.24s.12-.15.14-.19.03-.06.04-.09h.02v.19c0 .15.04.27.13.36s.24.14.43.14h1v-.94h-.35c-.13 0-.19-.06-.19-.19zm-1.1-.81c0 .29-.1.56-.29.8-.2.25-.44.37-.73.37-.22 0-.38-.06-.5-.17s-.18-.25-.18-.41c0-.47.5-.7 1.5-.7h.19v.11z"/><path d="m139.53 35.17v-3.35h-1.12v2.06c0 .42-.11.78-.34 1.07s-.53.44-.92.44c-.26 0-.44-.08-.54-.23-.1-.16-.15-.38-.15-.68v-2.07c0-.2-.05-.35-.14-.45-.09-.09-.24-.14-.45-.14h-1.06v.95h.35c.13 0 .19.06.19.19v1.74c0 1.14.52 1.71 1.55 1.71.36 0 .68-.09.96-.27s.47-.4.59-.66h.02v.2s0 .12 0 .12c0 .33.2.5.59.5h1.03v-.94h-.35c-.13 0-.19-.06-.19-.19z"/><path d="m142.39 35.19c-.18-.12-.28-.34-.28-.66v-1.81h1.02v-.89h-1.02v-1.22h-1.09v1.22h-.61v.89h.58v1.95c0 .29.05.54.14.75s.2.38.33.49.29.21.47.28.34.12.48.14.29.03.44.03c.13 0 .25 0 .34-.03v-.98l-.2.02c-.22 0-.43-.06-.61-.18z"/><path d="m145.99 31.72c-.67 0-1.22.22-1.64.65-.42.44-.63 1-.63 1.69 0 .66.22 1.21.66 1.67.44.45 1.02.68 1.75.68.21 0 .42-.02.62-.07s.37-.1.5-.16.25-.13.37-.2c.12-.08.2-.13.23-.16.04-.03.06-.06.08-.08l-.47-.77-.16.12c-.1.08-.25.17-.47.25-.21.09-.42.13-.63.13-.35 0-.65-.11-.91-.32-.25-.21-.4-.51-.44-.89h3.09l.03-.41c0-.62-.18-1.12-.53-1.53-.35-.4-.84-.6-1.46-.6zm-1.1 1.77c.06-.28.19-.5.38-.66s.43-.24.72-.24c.23 0 .43.09.59.25.16.17.24.39.25.65z"/><path d="m147.28 30.08h-1.08l-.66 1.19h.81z"/></g></svg>